<svg width="16.000000" height="16.000000" viewBox="0 0 16 16" fill="none" xmlns="http://www.w3.org/2000/svg" xmlns:xlink="http://www.w3.org/1999/xlink">
	<desc>
			Created with Pixso.
	</desc>
	<defs>
		<clipPath id="clip8_1469">
			<rect id="icon / tabler-icons / bulb" rx="-0.500000" width="15.000000" height="15.000000" transform="translate(0.500000 0.500000)" fill="white" fill-opacity="0"/>
		</clipPath>
	</defs>
	<g clip-path="url(#clip8_1469)">
		<path id="Vector" d="M1.67 8L0.88 8L1.67 8ZM8 1.67L8 0.88L8 1.67ZM15.11 8L14.32 8L15.11 8ZM3.49 3.49L2.94 2.94L3.49 3.49ZM13.05 2.94L12.5 3.49" stroke="#2AAF14" stroke-opacity="1.000000" stroke-width="1.700000" stroke-linejoin="round" stroke-linecap="round"/>
		<path id="Vector" d="M4.6 9.38C4.38 8.62 4.39 7.8 4.62 7.04C4.86 6.29 5.31 5.63 5.92 5.16C6.52 4.69 7.25 4.44 8 4.44C8.74 4.44 9.47 4.69 10.07 5.16C10.68 5.63 11.13 6.29 11.37 7.04C11.6 7.8 11.61 8.62 11.39 9.38C11.17 10.15 10.73 10.82 10.13 11.3C9.85 11.59 9.64 11.95 9.52 12.35C9.39 12.75 9.36 13.17 9.42 13.58C9.42 13.99 9.27 14.37 9 14.66C8.73 14.95 8.37 15.11 8 15.11C7.62 15.11 7.26 14.95 6.99 14.66C6.72 14.37 6.57 13.99 6.57 13.58C6.63 13.17 6.6 12.75 6.47 12.35C6.35 11.95 6.14 11.59 5.86 11.3C5.26 10.82 4.82 10.15 4.6 9.38Z" stroke="#2AAF14" stroke-opacity="1.000000" stroke-width="1.700000" stroke-linejoin="round"/>
		<path id="Vector" d="M6.22 11.55L9.77 11.55" stroke="#2AAF14" stroke-opacity="1.000000" stroke-width="1.700000" stroke-linejoin="round" stroke-linecap="round"/>
	</g>
</svg>
