<svg width="24.000000" height="24.000000" viewBox="0 0 24 24" fill="none" xmlns="http://www.w3.org/2000/svg" xmlns:xlink="http://www.w3.org/1999/xlink">
	<desc>
			Created with Pixso.
	</desc>
	<defs>
		<clipPath id="clip118_232">
			<rect id="Linear / Transport, Parts, Service / Wheel Angle" rx="4.500000" width="23.000000" height="23.000000" transform="translate(0.500000 0.500000)" fill="white" fill-opacity="0"/>
		</clipPath>
	</defs>
	<g clip-path="url(#clip118_232)">
		<path id="Vector" d="M15.45 4.8C17.19 4.8 18.6 7.93 18.6 11.8C18.6 15.66 17.19 18.8 15.45 18.8" stroke="#0066B5" stroke-opacity="1.000000" stroke-width="1.200000"/>
		<path id="Vector" d="M9.15 18.8C7.41 18.8 6 15.66 6 11.8C6 7.93 7.41 4.8 9.15 4.8C10.89 4.8 12.3 7.93 12.3 11.8C12.3 15.66 10.89 18.8 9.15 18.8Z" stroke="#0066B5" stroke-opacity="1.000000" stroke-width="1.200000"/>
		<path id="Vector" d="M9.15 4.8C10.89 4.8 12.3 7.93 12.3 11.8C12.3 15.66 10.89 18.8 9.15 18.8" stroke="#0066B5" stroke-opacity="1.000000" stroke-width="1.100000"/>
		<path id="Vector" d="M9.15 16C8.57 16 8.1 14.12 8.1 11.8C8.1 9.48 8.57 7.6 9.15 7.6C9.73 7.6 10.2 9.48 10.2 11.8C10.2 14.12 9.73 16 9.15 16Z" stroke="#0066B5" stroke-opacity="1.000000" stroke-width="1.100000"/>
		<path id="Vector" d="M9.15 4.8L15.45 4.8" stroke="#0066B5" stroke-opacity="1.000000" stroke-width="1.200000"/>
		<path id="Vector" d="M9.15 18.8L15.45 18.8" stroke="#0066B5" stroke-opacity="1.000000" stroke-width="1.200000"/>
		<path id="Vector" d="M10.2 11.8L9.5 11.8" stroke="#0066B5" stroke-opacity="1.000000" stroke-width="1.100000" stroke-linecap="round"/>
	</g>
</svg>
