<svg width="190" height="30" viewBox="0 0 190 30" fill="none" xmlns="http://www.w3.org/2000/svg">
<path d="M23.8729 6.75441C25.4314 8.5254 25.9981 11.1465 25.6439 15.0426C25.3605 19.1513 24.3688 21.7015 22.5978 23.3308C20.756 25.031 17.7099 25.8811 13.1761 25.8811C8.64242 25.8811 5.59632 25.1018 3.75449 23.3308C2.05435 21.7015 1.13343 19.1513 0.779235 15.0426C0.425038 11.1465 0.991753 8.5254 2.55022 6.75441C4.39205 4.70007 7.79234 3.70832 13.247 3.70832C18.6308 3.70832 22.0311 4.70007 23.8729 6.75441ZM13.247 3.1416C2.3377 3.1416 -0.495875 7.17945 0.14168 15.1135C0.850075 23.1183 3.68365 26.5186 13.1761 26.5186C22.6686 26.5186 25.5022 23.1183 26.2106 15.1135C26.919 7.17945 24.0854 3.1416 13.247 3.1416Z" fill="#0B457F"/>
<mask id="mask0_238_1672" style="mask-type:luminance" maskUnits="userSpaceOnUse" x="0" y="3" width="190" height="24">
<path d="M0.141663 3.2832V26.9436H189.637V3.2832" fill="white"/>
</mask>
<g mask="url(#mask0_238_1672)">
<path d="M13.2469 4.27539C3.4711 4.27539 0.779202 7.8882 1.41676 15.1138C2.05431 22.2686 4.60453 25.3147 13.1761 25.3147C21.7477 25.3147 24.2979 22.2686 24.9355 15.1138C25.573 7.8882 23.0228 4.27539 13.2469 4.27539ZM18.1349 5.97554C16.2222 10.7926 14.097 15.3972 13.4595 16.814C13.4343 16.8463 13.4021 16.8725 13.3652 16.8906C13.3284 16.9086 13.2879 16.9179 13.2469 16.9179C13.2059 16.9179 13.1655 16.9086 13.1287 16.8906C13.0918 16.8725 13.0596 16.8463 13.0344 16.814C12.326 15.3263 10.2008 10.7926 8.35902 5.97554C8.28818 5.9047 8.35902 5.83386 8.42986 5.83386C9.77581 5.5505 11.4051 5.40882 13.3178 5.40882C15.2304 5.40882 16.7889 5.5505 18.2057 5.83386C18.1349 5.83386 18.2057 5.9047 18.1349 5.97554ZM2.47935 14.9721C2.26683 11.6427 2.69187 9.44667 3.96698 7.95904C4.67537 7.17981 5.66712 6.61309 7.01307 6.18806C7.08391 6.18806 7.08391 6.18806 7.08391 6.32973V12.847C7.08391 13.9096 7.36727 14.9721 7.86315 15.9639L12.1844 24.0396C12.2552 24.1104 12.1844 24.1813 12.1135 24.1813C8.71322 24.0396 6.5172 23.402 5.10041 22.0561C3.61278 20.7101 2.83355 18.5141 2.47935 14.9721ZM23.9437 14.9721C23.6603 18.5141 22.8103 20.7101 21.3226 22.0561C19.9059 23.402 17.639 24.1104 14.3095 24.1813C14.1679 24.1813 14.1679 24.0396 14.1679 24.0396L18.4891 15.9639C18.9849 14.9721 19.1975 13.9096 19.1975 12.847V6.2589C19.1975 6.11722 19.2683 6.11722 19.3391 6.11722C20.6851 6.54225 21.6768 7.10897 22.3852 7.8882C23.7312 9.44667 24.2271 11.6427 23.9437 14.9721Z" fill="#0B457F"/>
</g>
<mask id="mask1_238_1672" style="mask-type:luminance" maskUnits="userSpaceOnUse" x="0" y="3" width="190" height="24">
<path d="M0.141663 3.2832V26.9436H189.637V3.2832" fill="white"/>
</mask>
<g mask="url(#mask1_238_1672)">
<path d="M39.0326 20.1427C35.4197 20.1427 33.2946 18.8675 33.2946 15.0422C33.2946 11.5711 35.4906 10.1543 39.1742 10.1543H43.8496V12.7754H39.3867C37.6158 12.7754 37.1199 13.2712 37.1199 15.1131C37.1199 17.0966 37.6158 17.5924 39.5284 17.5924H43.8496V20.2135H39.0326V20.1427Z" fill="#0B457F"/>
</g>
<mask id="mask2_238_1672" style="mask-type:luminance" maskUnits="userSpaceOnUse" x="0" y="3" width="190" height="24">
<path d="M0.141663 3.2832V26.9436H189.637V3.2832" fill="white"/>
</mask>
<g mask="url(#mask2_238_1672)">
<path d="M58.4425 10.084V20.1432H54.7589V16.3179H50.6502V20.1432H46.9666V10.084H50.6502V13.626H54.7589V10.084H58.4425Z" fill="#0B457F"/>
</g>
<mask id="mask3_238_1672" style="mask-type:luminance" maskUnits="userSpaceOnUse" x="0" y="3" width="190" height="24">
<path d="M0.141663 3.2832V26.9436H189.637V3.2832" fill="white"/>
</mask>
<g mask="url(#mask3_238_1672)">
<path d="M60.4969 20.1432L64.5347 10.084H67.935C68.7851 10.084 69.1393 10.3673 69.3518 10.9341L73.248 20.1432H69.281L66.7308 13.9093C66.5891 13.4843 66.3057 13.4843 66.164 13.9093L63.6847 20.1432H60.4969Z" fill="#0B457F"/>
</g>
<mask id="mask4_238_1672" style="mask-type:luminance" maskUnits="userSpaceOnUse" x="0" y="3" width="190" height="24">
<path d="M0.141663 3.2832V26.9436H189.637V3.2832" fill="white"/>
</mask>
<g mask="url(#mask4_238_1672)">
<path d="M83.2364 19.5765L78.561 15.1844C78.4193 14.9719 78.2776 15.0427 78.2776 15.3261V20.1432H75.2315V10.084H77.215C77.9234 10.084 78.3484 10.2257 78.7026 10.509L83.5906 15.0427C83.7322 15.2553 83.8739 15.1136 83.8739 14.9011V10.084H86.92V19.6473C86.92 19.9307 86.7783 20.1432 86.4241 20.1432H84.7948C84.1573 20.1432 83.6614 19.9307 83.2364 19.5765Z" fill="#0B457F"/>
</g>
<mask id="mask5_238_1672" style="mask-type:luminance" maskUnits="userSpaceOnUse" x="0" y="3" width="190" height="24">
<path d="M0.141663 3.2832V26.9436H189.637V3.2832" fill="white"/>
</mask>
<g mask="url(#mask5_238_1672)">
<path d="M101.23 20.1427H95.6332C91.8079 20.1427 89.7535 18.8675 89.7535 15.0422C89.7535 11.6419 91.7371 10.1543 95.7041 10.1543H101.655V12.7754H95.8457C94.0039 12.7754 93.4372 13.2004 93.4372 15.1131C93.4372 17.1674 93.9331 17.7341 95.8457 17.7341H98.0418C98.1834 17.7341 98.2543 17.5924 98.2543 17.4508V16.459C98.2543 16.3173 98.1834 16.1756 98.0418 16.1756H96.2708V14.0505H101.088C101.371 14.0505 101.584 14.1921 101.584 14.5463V19.6468C101.725 19.9301 101.513 20.1427 101.23 20.1427Z" fill="#0B457F"/>
</g>
<mask id="mask6_238_1672" style="mask-type:luminance" maskUnits="userSpaceOnUse" x="0" y="3" width="190" height="24">
<path d="M0.141663 3.2832V26.9436H189.637V3.2832" fill="white"/>
</mask>
<g mask="url(#mask6_238_1672)">
<path d="M103.851 20.1432L107.888 10.084H111.218C112.139 10.084 112.422 10.3673 112.706 10.9341L116.531 20.1432H112.635L110.085 13.9093C109.943 13.4843 109.659 13.4843 109.518 13.9093L107.038 20.1432H103.851Z" fill="#0B457F"/>
</g>
<mask id="mask7_238_1672" style="mask-type:luminance" maskUnits="userSpaceOnUse" x="0" y="3" width="190" height="24">
<path d="M0.141663 3.2832V26.9436H189.637V3.2832" fill="white"/>
</mask>
<g mask="url(#mask7_238_1672)">
<path d="M126.59 19.5765L121.915 15.1844C121.702 14.9719 121.631 15.0427 121.631 15.3261V20.1432H118.585V10.084H120.498C121.206 10.084 121.702 10.2257 122.056 10.509L126.944 15.0427C127.086 15.2553 127.228 15.1136 127.228 14.9011V10.084H130.274V19.6473C130.274 19.9307 130.132 20.1432 129.778 20.1432H128.149C127.511 20.1432 127.015 19.9307 126.59 19.5765Z" fill="#0B457F"/>
</g>
<mask id="mask8_238_1672" style="mask-type:luminance" maskUnits="userSpaceOnUse" x="0" y="3" width="190" height="24">
<path d="M0.141663 3.2832V26.9436H189.637V3.2832" fill="white"/>
</mask>
<g mask="url(#mask8_238_1672)">
<path d="M136.153 20.1432L140.191 10.084H143.592C144.442 10.084 144.796 10.3673 145.008 10.9341L148.905 20.1432H144.938L142.387 13.9093C142.246 13.4843 141.962 13.4843 141.821 13.9093L139.341 20.1432H136.153Z" fill="#0B457F"/>
</g>
<mask id="mask9_238_1672" style="mask-type:luminance" maskUnits="userSpaceOnUse" x="0" y="3" width="190" height="24">
<path d="M0.141663 3.2832V26.9436H189.637V3.2832" fill="white"/>
</mask>
<g mask="url(#mask9_238_1672)">
<path d="M161.656 10.084V15.8928C161.656 19.4348 159.389 20.4974 155.918 20.4974C152.446 20.4974 150.18 19.5056 150.18 15.8928V10.084H153.792V15.3261C153.792 17.3804 154.855 17.8763 156.13 17.8763C157.476 17.8763 158.539 17.3804 158.539 15.3261V10.084H161.656Z" fill="#0B457F"/>
</g>
<mask id="mask10_238_1672" style="mask-type:luminance" maskUnits="userSpaceOnUse" x="0" y="3" width="190" height="24">
<path d="M0.141663 3.2832V26.9436H189.637V3.2832" fill="white"/>
</mask>
<g mask="url(#mask10_238_1672)">
<path d="M163.993 10.084H175.044V12.7759H171.361V20.1432H167.677V12.7759H163.993V10.084Z" fill="#0B457F"/>
</g>
<mask id="mask11_238_1672" style="mask-type:luminance" maskUnits="userSpaceOnUse" x="0" y="3" width="190" height="24">
<path d="M0.141663 3.2832V26.9436H189.637V3.2832" fill="white"/>
</mask>
<g mask="url(#mask11_238_1672)">
<path d="M189.708 15.0425C189.708 18.7969 187.512 20.4262 183.12 20.4262C178.799 20.4262 176.532 18.7969 176.532 15.0425C176.532 11.288 178.799 9.72949 183.12 9.72949C187.441 9.72949 189.708 11.288 189.708 15.0425ZM180.286 15.0425C180.286 17.026 180.995 17.876 183.12 17.876C185.245 17.876 185.883 17.0968 185.883 15.0425C185.883 13.1298 185.174 12.3506 183.12 12.3506C180.995 12.3506 180.286 13.0589 180.286 15.0425Z" fill="#0B457F"/>
</g>
</svg>
