<svg width="127" height="30" viewBox="0 0 127 30" fill="none" xmlns="http://www.w3.org/2000/svg">
<path d="M46.9547 12.5909H41.591L40.5456 15.0454H38.5001L43.3183 4.36359H45.2728L50.091 15.0909H48.0001L46.9547 12.5909ZM46.2728 11.0454L44.2728 6.36359L42.2728 11.0454H46.2728Z" fill="#333333"/>
<path d="M60.3182 10.4545C60.6818 10.909 60.8637 11.4545 60.8637 12.0909C60.8637 13.0454 60.5 13.7727 59.8182 14.2727C59.1364 14.7727 58.1364 15.0454 56.8182 15.0454H51.7273V4.36359H56.5C57.6818 4.36359 58.6364 4.59086 59.3182 5.09086C60 5.59086 60.3182 6.22722 60.3182 7.13631C60.3182 7.68177 60.1818 8.18177 59.9091 8.59086C59.6364 8.99995 59.2273 9.31813 58.7273 9.5454C59.4546 9.68177 59.9546 9.99995 60.3182 10.4545ZM53.6818 8.95449H56.3637C57 8.95449 57.5 8.81813 57.8182 8.59086C58.1364 8.31813 58.3182 7.95449 58.3182 7.45449C58.3182 6.95449 58.1364 6.59086 57.8182 6.31813C57.5 6.0454 57 5.90904 56.3637 5.90904H53.6818V8.95449ZM58.8637 11.9545C58.8637 10.909 58.1818 10.409 56.7727 10.409H53.7273V13.5454H56.7727C58.1364 13.5454 58.8637 12.9999 58.8637 11.9545Z" fill="#333333"/>
<path d="M70.7273 6.0454H67.1819V15.0454H65.2273V6.0454H61.6819V4.36359H70.7273V6.0454Z" fill="#333333"/>
<path d="M74.3181 14.5455C73.4545 14.0909 72.7727 13.4091 72.2727 12.5909C71.7727 11.7727 71.5454 10.8182 71.5454 9.77273C71.5454 8.72728 71.7727 7.77273 72.2727 6.95455C72.7727 6.13637 73.4545 5.45455 74.3181 5.00001C75.1818 4.54546 76.1818 4.27274 77.2727 4.27274C78.3636 4.27274 79.3636 4.50001 80.2272 5.00001C81.0909 5.45455 81.7727 6.13637 82.2727 6.95455C82.7727 7.77273 82.9999 8.72728 82.9999 9.77273C82.9999 10.8182 82.7727 11.7727 82.2727 12.5909C81.7727 13.4091 81.0909 14.0909 80.2272 14.5455C79.3636 15 78.3636 15.2727 77.2727 15.2727C76.1363 15.2273 75.1818 15 74.3181 14.5455ZM79.1818 13C79.7727 12.6818 80.1818 12.2273 80.5454 11.6364C80.8636 11.0455 81.0454 10.4091 81.0454 9.68182C81.0454 8.95455 80.8636 8.31819 80.5454 7.72728C80.2272 7.13637 79.7727 6.68183 79.1818 6.36364C78.5909 6.04546 77.9545 5.86364 77.2727 5.86364C76.5454 5.86364 75.909 6.04546 75.3636 6.36364C74.7727 6.68183 74.3636 7.13637 74 7.72728C73.6818 8.31819 73.5 8.95455 73.5 9.68182C73.5 10.4091 73.6818 11.0455 74 11.6364C74.3181 12.2273 74.7727 12.6818 75.3636 13C75.9545 13.3182 76.5909 13.5 77.2727 13.5C77.9545 13.5 78.5909 13.3182 79.1818 13Z" fill="#333333"/>
<path d="M86.0455 4.36359L88.5455 7.95449L91.0455 4.36359H93.3637L89.7728 9.49995L93.6364 15.0454H91.2728L88.5 11.1363L85.7273 15.0454H83.4546L87.3182 9.5454L83.6819 4.31813H86.0455V4.36359Z" fill="#333333"/>
<path d="M101.955 12.5909H96.5909L95.5455 15.0454H93.5L98.3182 4.36359H100.273L105.091 15.0909H103L101.955 12.5909ZM101.318 11.0454L99.2727 6.36359L97.2727 11.0454H101.318Z" fill="#333333"/>
<path d="M115.409 4.36359L110.773 12.9999C110.364 13.7727 109.864 14.3181 109.318 14.7272C108.773 15.0909 108.136 15.3181 107.455 15.3181C106.909 15.3181 106.409 15.2272 105.864 14.9999L106.364 13.4545C106.773 13.5909 107.136 13.6363 107.409 13.6363C108.046 13.6363 108.591 13.3181 109 12.6363L109.182 12.3636L104.909 4.36359H107.046L110.227 10.6363L113.5 4.36359H115.409Z" fill="#333333"/>
<path d="M118.682 14.5455C117.818 14.0909 117.136 13.4091 116.636 12.5909C116.136 11.7727 115.909 10.8182 115.909 9.77273C115.909 8.72728 116.136 7.77273 116.636 6.95455C117.136 6.13637 117.818 5.45455 118.682 5.00001C119.545 4.54546 120.545 4.27274 121.591 4.27274C122.455 4.27274 123.273 4.4091 124 4.72728C124.727 5.04546 125.318 5.45455 125.818 6.04546L124.545 7.27273C123.773 6.45455 122.818 6.00001 121.682 6.00001C120.955 6.00001 120.273 6.18183 119.727 6.50001C119.136 6.81819 118.682 7.27274 118.364 7.81819C118.045 8.4091 117.864 9.04546 117.864 9.77273C117.864 10.5 118.045 11.1364 118.364 11.7273C118.682 12.3182 119.136 12.7273 119.727 13.0455C120.318 13.3636 120.955 13.5455 121.682 13.5455C122.818 13.5455 123.773 13.1364 124.545 12.2727L125.818 13.5C125.318 14.0909 124.682 14.5455 123.955 14.8182C123.227 15.1364 122.409 15.2727 121.545 15.2727C120.5 15.2273 119.545 15 118.682 14.5455Z" fill="#333333"/>
<path d="M0 30L17.2727 0L20.2727 5.04545L5.77272 30H0Z" fill="#333333"/>
<path d="M23.5909 10.3181L34.8636 30H17.6363L14.7727 24.9545L17.7272 19.8636L20.6818 25.0454L26.5454 25L20.8182 15L23.5909 10.3181Z" fill="#333333"/>
<path d="M41.3181 19.3636V22.3182H40.9999V19.6363H39.1363V22.3182H38.8181V19.3636H41.3181Z" fill="#333333"/>
<path d="M45.8182 19.6363C46.0455 19.8182 46.1364 20.0454 46.1364 20.3636C46.1364 20.6818 46.0455 20.9091 45.8182 21.0909C45.591 21.2727 45.3182 21.3636 44.9091 21.3636H44.1364V22.3182H43.8182V19.3636H44.9091C45.2728 19.3636 45.591 19.4545 45.8182 19.6363ZM45.591 20.9091C45.7273 20.7727 45.8182 20.5909 45.8182 20.3636C45.8182 20.1363 45.7273 19.9545 45.591 19.8182C45.4546 19.6818 45.2273 19.6363 44.9091 19.6363H44.1364V21.1363H44.9091C45.1819 21.1363 45.4091 21.0454 45.591 20.9091Z" fill="#333333"/>
<path d="M48.7726 22.1363C48.5453 22 48.3635 21.8182 48.2271 21.5909C48.0907 21.3636 48.0453 21.0909 48.0453 20.8182C48.0453 20.5454 48.0907 20.2727 48.2271 20.0454C48.3635 19.8182 48.5453 19.6363 48.7726 19.5C48.9998 19.3636 49.2726 19.3182 49.5907 19.3182C49.8635 19.3182 50.1362 19.3636 50.3635 19.5C50.5907 19.6363 50.7726 19.8182 50.9089 20.0454C51.0453 20.2727 51.0907 20.5454 51.0907 20.8182C51.0907 21.0909 51.0453 21.3636 50.9089 21.5909C50.7726 21.8182 50.5907 22 50.3635 22.1363C50.1362 22.2727 49.8635 22.3182 49.5907 22.3182C49.2726 22.3636 48.9998 22.2727 48.7726 22.1363ZM50.2271 21.9091C50.4089 21.8182 50.5453 21.6363 50.6817 21.4545C50.7726 21.2727 50.8635 21.0454 50.8635 20.8182C50.8635 20.5909 50.818 20.3636 50.6817 20.1818C50.5907 20 50.4089 19.8636 50.2271 19.7273C50.0453 19.5909 49.818 19.5909 49.5907 19.5909C49.3635 19.5909 49.1362 19.6363 48.9544 19.7273C48.7726 19.8182 48.6362 20 48.4998 20.1818C48.4089 20.3636 48.318 20.5909 48.318 20.8182C48.318 21.0454 48.3635 21.2727 48.4998 21.4545C48.5907 21.6363 48.7726 21.7727 48.9544 21.9091C49.1362 22 49.3635 22.0454 49.5907 22.0454C49.818 22.0454 50.0453 22 50.2271 21.9091Z" fill="#333333"/>
<path d="M55.9999 22.0454V23H55.7272V22.3182H53.1363V23H52.8181V22.0454H52.9545C53.1363 22.0454 53.2727 21.8636 53.3636 21.5909C53.4545 21.2727 53.4999 20.8636 53.4999 20.3182L53.5454 19.3636H55.5454V22.0454H55.9999ZM53.6817 21.4545C53.6363 21.7273 53.5454 21.9545 53.409 22.0454H55.2272V19.6363H53.8181L53.7727 20.3636C53.7727 20.8182 53.7272 21.1818 53.6817 21.4545Z" fill="#333333"/>
<path d="M59.9999 21.5454H58.3636L57.9999 22.3182H57.6818L59.0454 19.3636H59.3636L60.7272 22.3182H60.409L59.9999 21.5454ZM59.909 21.2727L59.1818 19.6818L58.4545 21.2727H59.909Z" fill="#333333"/>
<path d="M64.9999 20.9545H64.409V22.3182H64.0909V20.9545H63.4545L62.5454 22.3182H62.1818L63.1818 20.7727L62.2272 19.3182H62.5454L63.409 20.6363H64.0454V19.3182H64.3636V20.6363H64.9545L65.8181 19.3182H66.1363L65.1818 20.7727L66.1818 22.3182H65.8181L64.9999 20.9545Z" fill="#333333"/>
<path d="M70.091 21.5454H68.4546L68.091 22.3182H67.7728L69.1365 19.3636H69.4547L70.8183 22.3182H70.5001L70.091 21.5454ZM70.0001 21.2727L69.2728 19.6818L68.5456 21.2727H70.0001Z" fill="#333333"/>
<path d="M77.3182 21.5454H75.6818L75.3182 22.3182H75L76.3636 19.3636H76.6818L78.0455 22.3182H77.7273L77.3182 21.5454ZM77.1818 21.2727L76.4545 19.6818L75.7273 21.2727H77.1818Z" fill="#333333"/>
<path d="M82.2727 21.0454C82.3636 21.1818 82.4545 21.3181 82.4545 21.5454C82.4545 21.8181 82.3636 22 82.1818 22.1363C82 22.2727 81.7272 22.3636 81.3636 22.3636H80.0454V19.4091H81.2727C81.5909 19.4091 81.8181 19.4545 82 19.5909C82.1818 19.7272 82.2727 19.9091 82.2727 20.1363C82.2727 20.3181 82.2272 20.4545 82.1363 20.5454C82.0454 20.6818 81.9545 20.7272 81.7727 20.8181C82 20.8181 82.1363 20.9091 82.2727 21.0454ZM80.3636 20.6818H81.2727C81.5 20.6818 81.6818 20.6363 81.8181 20.5454C81.9545 20.4545 82 20.3181 82 20.1363C82 19.9545 81.9545 19.8181 81.8181 19.7272C81.6818 19.6363 81.5 19.5909 81.2727 19.5909H80.3636V20.6818ZM82.0909 21.5C82.0909 21.1363 81.8181 20.9545 81.3181 20.9545H80.3181V22.0909H81.3181C81.8636 22.0909 82.0909 21.8636 82.0909 21.5Z" fill="#333333"/>
<path d="M86.591 19.6363H85.5455V22.3182H85.2273V19.6363H84.1819V19.3636H86.591V19.6363Z" fill="#333333"/>
<path d="M89.0454 22.1363C88.8181 22 88.6363 21.8182 88.4999 21.5909C88.3636 21.3636 88.3181 21.0909 88.3181 20.8182C88.3181 20.5454 88.3636 20.2727 88.4999 20.0454C88.6363 19.8182 88.8181 19.6363 89.0454 19.5C89.2727 19.3636 89.5454 19.3182 89.8636 19.3182C90.1817 19.3182 90.409 19.3636 90.6363 19.5C90.8636 19.6363 91.0454 19.8182 91.1817 20.0454C91.3181 20.2727 91.3636 20.5454 91.3636 20.8182C91.3636 21.0909 91.3181 21.3636 91.1817 21.5909C91.0454 21.8182 90.8636 22 90.6363 22.1363C90.409 22.2727 90.1363 22.3182 89.8636 22.3182C89.5908 22.3182 89.3181 22.2727 89.0454 22.1363ZM90.4999 21.9091C90.6817 21.8182 90.8181 21.6363 90.9545 21.4545C91.0908 21.2727 91.1363 21.0454 91.1363 20.8182C91.1363 20.5909 91.0908 20.3636 90.9545 20.1818C90.8636 20 90.6817 19.8636 90.4999 19.7273C90.3181 19.5909 90.0908 19.5909 89.8636 19.5909C89.6363 19.5909 89.409 19.6363 89.2272 19.7273C89.0454 19.8182 88.909 20 88.7727 20.1818C88.6818 20.3636 88.5908 20.5909 88.5908 20.8182C88.5908 21.0454 88.6363 21.2727 88.7727 21.4545C88.8636 21.6363 89.0454 21.7727 89.2272 21.9091C89.409 22.0454 89.6363 22.0454 89.8636 22.0454C90.0908 22.0909 90.3181 22 90.4999 21.9091Z" fill="#333333"/>
<path d="M96.6817 19.3636V22.3182H96.3635V19.9545L95.1817 21.9545H95.0908L93.909 20V22.3636H93.5908V19.4091H93.8636L95.1363 21.5909L96.409 19.4091H96.6817V19.3636Z" fill="#333333"/>
<path d="M99.6817 22.1363C99.4545 22 99.2726 21.8182 99.1363 21.5909C98.9999 21.3636 98.9545 21.0909 98.9545 20.8182C98.9545 20.5454 98.9999 20.2727 99.1363 20.0454C99.2726 19.8182 99.4545 19.6363 99.6817 19.5C99.909 19.3636 100.182 19.3182 100.5 19.3182C100.818 19.3182 101.045 19.3636 101.273 19.5C101.5 19.6363 101.682 19.8182 101.818 20.0454C101.954 20.2727 102 20.5454 102 20.8182C102 21.0909 101.954 21.3636 101.818 21.5909C101.682 21.8182 101.5 22 101.273 22.1363C101.045 22.2727 100.773 22.3182 100.5 22.3182C100.227 22.3182 99.909 22.2727 99.6817 22.1363ZM101.091 21.9091C101.273 21.8182 101.409 21.6363 101.545 21.4545C101.682 21.2727 101.727 21.0454 101.727 20.8182C101.727 20.5909 101.682 20.3636 101.545 20.1818C101.454 20 101.273 19.8636 101.091 19.7273C100.909 19.5909 100.682 19.5909 100.454 19.5909C100.227 19.5909 99.9999 19.6363 99.8181 19.7273C99.6363 19.8182 99.4999 20 99.3636 20.1818C99.2726 20.3636 99.1817 20.5909 99.1817 20.8182C99.1817 21.0454 99.2272 21.2727 99.3636 21.4545C99.4545 21.6363 99.6363 21.7727 99.8181 21.9091C99.9999 22.0454 100.227 22.0454 100.454 22.0454C100.727 22.0909 100.909 22 101.091 21.9091Z" fill="#333333"/>
<path d="M104.273 19.3636H106.455V19.6363H104.591V20.5909H105.545C105.909 20.5909 106.182 20.6818 106.364 20.8182C106.545 20.9545 106.636 21.1818 106.636 21.4545C106.636 21.7273 106.545 21.9545 106.364 22.0909C106.182 22.2273 105.909 22.3182 105.5 22.3182H104.273V19.3636ZM105.455 22.0909C105.727 22.0909 105.955 22.0454 106.091 21.9545C106.227 21.8636 106.318 21.6818 106.318 21.5C106.318 21.3182 106.227 21.1363 106.091 21.0454C105.955 20.9545 105.727 20.9091 105.455 20.9091H104.545V22.1363H105.455V22.0909Z" fill="#333333"/>
<path d="M108.818 19.3636H109.136V21.8182L111.045 19.3636H111.318V22.3182H111V19.8636L109.091 22.3182H108.818V19.3636Z" fill="#333333"/>
<path d="M116.046 19.3636V22.3182H115.727V19.6363H114.318L114.273 20.6363C114.273 21.0454 114.227 21.3636 114.182 21.6363C114.136 21.8636 114.046 22.0909 113.955 22.1818C113.864 22.3182 113.727 22.3636 113.546 22.3636C113.455 22.3636 113.409 22.3636 113.318 22.3182L113.364 22.0454C113.409 22.0454 113.455 22.0454 113.5 22.0454C113.636 22.0454 113.727 22 113.818 21.9091C113.909 21.8182 113.955 21.6363 114 21.4545C114.046 21.2273 114.046 20.9545 114.091 20.6363L114.136 19.3636H116.046Z" fill="#333333"/>
<path d="M120.591 22.0454V22.3182H118.5V19.3636H120.545V19.6363H118.818V20.6818H120.364V20.9545H118.818V22.0454H120.591Z" fill="#333333"/>
<path d="M122.773 19.3636H123.091V21.8182L125 19.3636H125.273V22.3182H124.954V19.8636L123.045 22.3182H122.773V19.3636ZM123.5 19C123.363 18.9091 123.318 18.7727 123.318 18.5909H123.545C123.545 18.6818 123.591 18.7727 123.682 18.8636C123.773 18.9545 123.863 18.9545 124 18.9545C124.136 18.9545 124.227 18.9091 124.318 18.8636C124.409 18.8182 124.454 18.7273 124.454 18.5909H124.682C124.682 18.7727 124.636 18.9091 124.5 19C124.363 19.0909 124.227 19.1364 124 19.1364C123.773 19.1364 123.636 19.0909 123.5 19Z" fill="#333333"/>
<path d="M110.5 27.3636H107.864V30H110.5V27.3636Z" fill="#333333"/>
<path d="M118.136 26.5909H114.727V30H118.136V26.5909Z" fill="#333333"/>
<path d="M125.682 25.9091H121.591V30H125.682V25.9091Z" fill="#333333"/>
</svg>
