<svg width="18" height="18" viewBox="0 0 18 18" fill="none" xmlns="http://www.w3.org/2000/svg">
<path fill-rule="evenodd" clip-rule="evenodd" d="M2.04544 4.74037C2.88392 3.85749 3.18083 3.60984 3.53779 3.49546C3.78521 3.43047 4.04476 3.42665 4.29398 3.48435C4.62203 3.57986 4.70766 3.65204 5.78411 4.72149C6.72934 5.66101 6.82275 5.76318 6.91394 5.94308C7.09032 6.26689 7.11868 6.65083 6.99178 6.99698C6.89837 7.25796 6.76048 7.4312 6.18778 8.00646L5.81413 8.38071C5.71583 8.4803 5.69253 8.63159 5.75631 8.75608C6.58575 10.1693 7.76226 11.3481 9.17471 12.181C9.33762 12.2682 9.53834 12.2399 9.67068 12.111L10.0299 11.7579C10.2518 11.5304 10.4868 11.3161 10.7338 11.116C11.121 10.8767 11.6043 10.8536 12.0126 11.0549C12.2117 11.1482 12.2784 11.2093 13.2537 12.1799C14.2545 13.1793 14.2867 13.2116 14.3991 13.4414C14.6088 13.8222 14.6067 14.2842 14.3935 14.663C14.2823 14.8762 14.22 14.954 13.6551 15.5304C13.3137 15.8791 12.9879 16.1967 12.9412 16.2433C12.4746 16.6284 11.8766 16.8175 11.2731 16.7708C10.1691 16.6699 9.10061 16.3288 8.14274 15.7713C6.01968 14.648 4.21241 13.0112 2.88614 11.0105C2.59611 10.5922 2.33813 10.1527 2.11439 9.69559C1.51823 8.67498 1.21003 7.51216 1.22253 6.33066C1.26738 5.71044 1.56479 5.13568 2.04544 4.74037Z" stroke="#8F9496" stroke-width="1.3" stroke-linecap="round" stroke-linejoin="round"/>
<path d="M11.5479 0.610347C11.21 0.489221 10.8379 0.664978 10.7167 1.00291C10.5956 1.34084 10.7714 1.71298 11.1093 1.83411L11.5479 0.610347ZM16.1697 6.80294C16.2968 7.13867 16.672 7.3078 17.0077 7.18069C17.3435 7.05359 17.5126 6.67839 17.3855 6.34266L16.1697 6.80294ZM10.2485 3.09025C9.89829 3.01127 9.55038 3.23113 9.4714 3.58132C9.39241 3.93151 9.61227 4.27942 9.96246 4.3584L10.2485 3.09025ZM13.7108 8.03945C13.7958 8.38822 14.1475 8.60204 14.4963 8.51702C14.845 8.432 15.0589 8.08035 14.9738 7.73158L13.7108 8.03945ZM11.1093 1.83411C13.4435 2.67077 15.2929 4.48694 16.1697 6.80294L17.3855 6.34266C16.3737 3.67023 14.24 1.57529 11.5479 0.610347L11.1093 1.83411ZM9.96246 4.3584C11.811 4.77531 13.2628 6.20169 13.7108 8.03945L14.9738 7.73158C14.4088 5.41344 12.5778 3.61561 10.2485 3.09025L9.96246 4.3584Z" fill="#8F9496"/>
</svg>
