<svg width="20" height="19" viewBox="0 0 20 19" fill="none" xmlns="http://www.w3.org/2000/svg">
<path fill-rule="evenodd" clip-rule="evenodd" d="M2.35006 4.81437C3.27238 3.84321 3.59899 3.57079 3.99165 3.44497C4.2638 3.37347 4.54931 3.36928 4.82345 3.43275C5.18431 3.53781 5.2785 3.61721 6.46259 4.7936C7.50235 5.82707 7.6051 5.93946 7.70541 6.13735C7.89943 6.49355 7.93062 6.91588 7.79103 7.29664C7.68828 7.58372 7.5366 7.77429 6.90663 8.40707L6.49562 8.81875C6.38749 8.92829 6.36185 9.09471 6.43201 9.23165C7.3444 10.7862 8.63856 12.0828 10.1923 12.999C10.3715 13.095 10.5922 13.0638 10.7378 12.9221L11.1329 12.5336C11.3771 12.2834 11.6356 12.0477 11.9072 11.8275C12.3332 11.5643 12.8648 11.5389 13.314 11.7603C13.5329 11.863 13.6063 11.9301 14.6791 12.9978C15.78 14.0972 15.8155 14.1327 15.939 14.3855C16.1697 14.8044 16.1674 15.3125 15.9329 15.7293C15.8106 15.9638 15.7421 16.0493 15.1207 16.6834C14.7452 17.0669 14.3867 17.4163 14.3354 17.4676C13.8222 17.8912 13.1643 18.0992 12.5005 18.0479C11.2861 17.9369 10.1107 17.5616 9.05709 16.9484C6.72172 15.7128 4.73373 13.9123 3.27483 11.7115C2.9558 11.2514 2.67202 10.7679 2.4259 10.2651C1.77013 9.14244 1.43111 7.86334 1.44486 6.56369C1.49419 5.88145 1.82134 5.24921 2.35006 4.81437Z" stroke="#8F9496" stroke-width="1.3" stroke-linecap="round" stroke-linejoin="round"/>
<path d="M12.7808 0.332576C12.4429 0.21145 12.0708 0.387207 11.9496 0.72514C11.8285 1.06307 12.0043 1.43521 12.3422 1.55634L12.7808 0.332576ZM17.9475 7.06023C18.0746 7.39596 18.4498 7.56508 18.7856 7.43798C19.1213 7.31087 19.2904 6.93567 19.1633 6.59994L17.9475 7.06023ZM11.3591 3.06269C11.0089 2.98371 10.661 3.20357 10.582 3.55376C10.503 3.90395 10.7229 4.25186 11.0731 4.33084L11.3591 3.06269ZM15.2451 8.42801C15.3301 8.77678 15.6818 8.9906 16.0305 8.90558C16.3793 8.82056 16.5931 8.46891 16.5081 8.12013L15.2451 8.42801ZM12.3422 1.55634C14.9277 2.48307 16.9763 4.49481 17.9475 7.06023L19.1633 6.59994C18.0571 3.6781 15.7243 1.3876 12.7808 0.332576L12.3422 1.55634ZM11.0731 4.33084C13.1304 4.79486 14.7465 6.38245 15.2451 8.42801L16.5081 8.12013C15.8924 5.5942 13.8973 3.63516 11.3591 3.06269L11.0731 4.33084Z" fill="#8F9496"/>
</svg>
