<svg width="22" height="22" viewBox="0 0 22 22" fill="none" xmlns="http://www.w3.org/2000/svg">
<path fill-rule="evenodd" clip-rule="evenodd" d="M16.1854 4.52084C17.5565 5.82716 18.3324 7.6382 18.3324 9.53195C18.3324 11.4257 17.5565 13.2367 16.1854 14.5431L10.9995 19.5542L5.81364 14.5431C4.44257 13.2367 3.66663 11.4257 3.66663 9.53195C3.66663 7.6382 4.44257 5.82716 5.81364 4.52084C8.71666 1.75233 13.2824 1.75233 16.1854 4.52084Z" stroke="#8F9496" stroke-width="1.3" stroke-linecap="round" stroke-linejoin="round"/>
<path fill-rule="evenodd" clip-rule="evenodd" d="M13.9328 9.09685C13.9222 9.86415 13.6072 10.5958 13.0571 11.1308C12.5069 11.6658 11.7668 11.9603 10.9995 11.9495C10.2322 11.9603 9.49206 11.6658 8.94194 11.1308C8.39182 10.5958 8.07678 9.86415 8.06616 9.09685C8.08895 7.49951 9.40214 6.22297 10.9995 6.24541C12.5968 6.22297 13.91 7.49951 13.9328 9.09685V9.09685Z" stroke="#8F9496" stroke-width="1.3" stroke-linecap="round" stroke-linejoin="round"/>
</svg>
